<?xml version="1.0" encoding="UTF-8"?>
<svg xmlns="http://www.w3.org/2000/svg" xmlns:xlink="http://www.w3.org/1999/xlink" width="16pt" height="16pt" viewBox="0 0 16 16" version="1.1">
<g id="surface1">
<path d="M 15.792969 14.847656 L 11.832031 10.882812 C 12.769531 9.730469 13.332031 8.265625 13.332031 6.667969 C 13.332031 2.996094 10.34375 0 6.664062 0 C 2.984375 0 0 2.996094 0 6.667969 C 0 10.34375 2.988281 13.335938 6.667969 13.335938 C 8.261719 13.335938 9.730469 12.769531 10.878906 11.832031 L 14.84375 15.796875 C 15.113281 16.066406 15.527344 16.066406 15.796875 15.796875 C 16.066406 15.523438 16.066406 15.117188 15.792969 14.847656 Z M 1.328125 6.667969 C 1.328125 3.726562 3.722656 1.335938 6.664062 1.335938 C 9.609375 1.335938 12.003906 3.730469 12.003906 6.671875 C 12.003906 9.617188 9.609375 12.011719 6.664062 12.011719 C 3.722656 12.011719 1.328125 9.613281 1.328125 6.667969 Z M 1.328125 6.667969" fill="#C5C5C5"/>
</g>
</svg>
