<?xml version="1.0" encoding="UTF-8"?>
<svg xmlns="http://www.w3.org/2000/svg" xmlns:xlink="http://www.w3.org/1999/xlink" width="16pt" height="16pt" viewBox="0 0 16 16" version="1.1">
<g id="surface1">
<path d="M 9.136719 2.800781 C 8.769531 2.714844 8.390625 2.667969 8 2.667969 C 7.609375 2.667969 7.230469 2.714844 6.863281 2.800781 C 2.816406 3.628906 0 8 0 8 C 0 8 3.355469 13.207031 8 13.332031 C 12.644531 13.207031 16 8 16 8 C 16 8 13.183594 3.628906 9.136719 2.800781 Z M 8 12 C 5.789062 12 4 10.210938 4 8 C 4 5.789062 5.789062 4 8 4 C 10.210938 4 12 5.789062 12 8 C 12 10.210938 10.210938 12 8 12 Z M 8 12" fill="#C5C5C5" />
<path d="M 8 5.332031 L 8 8 L 6.113281 6.113281 C 5.632812 6.597656 5.332031 7.261719 5.332031 8 C 5.332031 9.472656 6.527344 10.667969 8 10.667969 C 9.472656 10.667969 10.667969 9.472656 10.667969 8 C 10.667969 6.527344 9.472656 5.332031 8 5.332031 Z M 8 5.332031" fill="#C5C5C5" />
</g>
</svg>
